<?xml version="1.0" encoding="UTF-8" standalone="no"?>
<!-- Created with Inkscape (http://www.inkscape.org/) -->

<svg
   xmlns:dc="http://purl.org/dc/elements/1.1/"
   xmlns:cc="http://creativecommons.org/ns#"
   xmlns:rdf="http://www.w3.org/1999/02/22-rdf-syntax-ns#"
   xmlns:svg="http://www.w3.org/2000/svg"
   xmlns="http://www.w3.org/2000/svg"
   version="1.1"
   width="10800"
   height="7400"
   id="svg2">
  <defs
     id="defs4" />
  <metadata
     id="metadata7">
    <rdf:RDF>
      <cc:Work
         rdf:about="">
        <dc:format>image/svg+xml</dc:format>
        <dc:type
           rdf:resource="http://purl.org/dc/dcmitype/StillImage" />
        <dc:title></dc:title>
      </cc:Work>
    </rdf:RDF>
  </metadata>
  <g
     transform="translate(0,6347.6378)"
     id="layer1">
    <rect
       width="9439.3594"
       height="6039.3594"
       x="680.32031"
       y="-5667.3174"
       id="rect3001"
       style="fill:none;stroke:#000000;stroke-width:10.64057446;stroke-linecap:square;stroke-linejoin:round;stroke-miterlimit:4;stroke-opacity:1;stroke-dasharray:none" />
    <path
       d="m 5400,-5661.5309 0,6032.2274"
       id="path3823"
       style="fill:none;stroke:#000000;stroke-width:11.54616737;stroke-linecap:butt;stroke-linejoin:miter;stroke-miterlimit:4;stroke-opacity:1;stroke-dasharray:none" />
    <g
       transform="translate(-5.0000096,-999.99998)"
       id="g4672">
      <g
         id="g4668">
        <g
           id="g4665">
          <path
             d="M 1721.875,2056.25 A 684.375,481.25 0 0 1 2406.25,2537.5"
             transform="matrix(0.71587941,0,0,1.0180363,-547.61984,-4410.94)"
             id="path4638"
             style="fill:none;stroke:#000000;stroke-width:11.79585838;stroke-linecap:square;stroke-linejoin:round;stroke-miterlimit:4;stroke-opacity:1;stroke-dasharray:none" />
        </g>
      </g>
      <path
         d="M 1721.875,2056.25 A 684.375,481.25 0 0 1 2406.25,2537.5"
         transform="matrix(0.71587941,0,0,-1.0180363,-547.61984,1115.6643)"
         id="path4659"
         style="fill:none;stroke:#000000;stroke-width:11.79585838;stroke-linecap:square;stroke-linejoin:round;stroke-miterlimit:4;stroke-opacity:1;stroke-dasharray:none" />
      <path
         d="m 1175.0384,-1818.5995 0,340.9233"
         id="path4661"
         style="fill:none;stroke:#000000;stroke-width:10.07673264;stroke-linecap:square;stroke-linejoin:miter;stroke-miterlimit:4;stroke-opacity:1;stroke-dasharray:none" />
    </g>
    <g
       transform="matrix(-1,0,0,1,10805.077,-999.99998)"
       id="g4679">
      <g
         id="g4681">
        <g
           id="g4683">
          <path
             d="M 1721.875,2056.25 A 684.375,481.25 0 0 1 2406.25,2537.5"
             transform="matrix(0.71587941,0,0,1.0180363,-547.61984,-4410.94)"
             id="path4685"
             style="fill:none;stroke:#000000;stroke-width:11.79585838;stroke-linecap:square;stroke-linejoin:round;stroke-miterlimit:4;stroke-opacity:1;stroke-dasharray:none" />
        </g>
      </g>
      <path
         d="M 1721.875,2056.25 A 684.375,481.25 0 0 1 2406.25,2537.5"
         transform="matrix(0.71587941,0,0,-1.0180363,-547.61984,1115.6643)"
         id="path4687"
         style="fill:none;stroke:#000000;stroke-width:11.79585838;stroke-linecap:square;stroke-linejoin:round;stroke-miterlimit:4;stroke-opacity:1;stroke-dasharray:none" />
      <path
         d="m 1175.0384,-1818.5995 0,340.9233"
         id="path4689"
         style="fill:none;stroke:#000000;stroke-width:10.07673264;stroke-linecap:square;stroke-linejoin:miter;stroke-miterlimit:4;stroke-opacity:1;stroke-dasharray:none" />
    </g>
    <path
       d="m 3336.3435,2631.6079 a 392.51102,341.96036 0 1 1 -785.022,0 392.51102,341.96036 0 1 1 785.022,0 z"
       transform="matrix(1.2610668,0,0,1.4474854,1687.6305,-6456.8518)"
       id="path4663"
       style="fill:none;stroke:#000000;stroke-width:7.42729712;stroke-linecap:square;stroke-linejoin:round;stroke-miterlimit:4;stroke-opacity:1;stroke-dasharray:none" />
    <g
       transform="translate(0,-999.99998)"
       id="g4697">
      <rect
         width="50"
         height="30"
         x="1100"
         y="-1662.6378"
         id="rect4693"
         style="fill:#000000;fill-opacity:1;stroke:#000000;stroke-width:0;stroke-linecap:square;stroke-linejoin:round;stroke-miterlimit:4;stroke-opacity:1;stroke-dasharray:none" />
      <rect
         width="30"
         height="50"
         x="1110"
         y="-1672.6378"
         id="rect4695"
         style="fill:#000000;fill-opacity:1;stroke:#000000;stroke-width:0;stroke-linecap:square;stroke-linejoin:round;stroke-miterlimit:4;stroke-opacity:1;stroke-dasharray:none" />
    </g>
    <g
       transform="translate(8550,-999.99998)"
       id="g4701">
      <rect
         width="50"
         height="30"
         x="1100"
         y="-1662.6378"
         id="rect4703"
         style="fill:#000000;fill-opacity:1;stroke:#000000;stroke-width:0;stroke-linecap:square;stroke-linejoin:round;stroke-miterlimit:4;stroke-opacity:1;stroke-dasharray:none" />
      <rect
         width="30"
         height="50"
         x="1110"
         y="-1672.6378"
         id="rect4705"
         style="fill:#000000;fill-opacity:1;stroke:#000000;stroke-width:0;stroke-linecap:square;stroke-linejoin:round;stroke-miterlimit:4;stroke-opacity:1;stroke-dasharray:none" />
    </g>
    <path
       d="m 2330.6239,2664.9109 a 31.112698,36.769554 0 1 1 -62.2254,0 31.112698,36.769554 0 1 1 62.2254,0 z"
       transform="matrix(0.48211827,0,0,0.4079462,4291.3636,-3734.7781)"
       id="path4691"
       style="fill:#000000;fill-opacity:1;stroke:#000000;stroke-width:0;stroke-linecap:square;stroke-linejoin:round;stroke-miterlimit:4;stroke-opacity:1;stroke-dasharray:none" />
  </g>
</svg>
